/* XPM */
static char * bird1_xpm[] = {
"32 32 124 2",
"  	c #4D9262",
". 	c #569364",
"+ 	c #DDD2C4",
"@ 	c #FFFFFF",
"# 	c #3E734E",
"$ 	c #549261",
"% 	c #C72700",
"& 	c #84AB8E",
"* 	c #689D72",
"= 	c #B8CBA6",
"- 	c #689D77",
"; 	c #B6CABA",
"> 	c #B7CBBC",
", 	c #A5BFAB",
"' 	c #371F11",
") 	c #4F0802",
"! 	c #440D00",
"~ 	c #91B293",
"{ 	c #AAC2B0",
"] 	c #D23E1A",
"^ 	c #EF6727",
"/ 	c #FB902F",
"( 	c #F6A10C",
"_ 	c #FBAB0F",
": 	c #E8952D",
"< 	c #9EBB97",
"[ 	c #8DB095",
"} 	c #D9E2DB",
"| 	c #E41409",
"1 	c #AC1108",
"2 	c #000000",
"3 	c #B8D7C7",
"4 	c #9FC5B2",
"5 	c #9CC592",
"6 	c #C6E0CC",
"7 	c #C4C4C4",
"8 	c #D5D5D5",
"9 	c #E35524",
"0 	c #AF5A3A",
"a 	c #E62C18",
"b 	c #A6462D",
"c 	c #D13F1A",
"d 	c #A8C8B8",
"e 	c #B4D1C2",
"f 	c #649D76",
"g 	c #CADDCE",
"h 	c #728D5D",
"i 	c #539161",
"j 	c #B6481F",
"k 	c #68996B",
"l 	c #5E9869",
"m 	c #589668",
"n 	c #70A27C",
"o 	c #B0D4C4",
"p 	c #D3E2DE",
"q 	c #CDD9D2",
"r 	c #FAAF15",
"s 	c #4F2012",
"t 	c #52160B",
"u 	c #B2441D",
"v 	c #589465",
"w 	c #77AF93",
"x 	c #C3DBD6",
"y 	c #709A63",
"z 	c #B62300",
"A 	c #9E220F",
"B 	c #69956A",
"C 	c #4E9363",
"D 	c #AED0C3",
"E 	c #EFF3F0",
"F 	c #A61D0C",
"G 	c #879571",
"H 	c #789977",
"I 	c #59966C",
"J 	c #57986F",
"K 	c #54976B",
"L 	c #90C2B1",
"M 	c #CC1F0F",
"N 	c #8F1E0E",
"O 	c #7F9B86",
"P 	c #7DA492",
"Q 	c #76AC95",
"R 	c #82B7A5",
"S 	c #AAD1C7",
"T 	c #7AB055",
"U 	c #A11203",
"V 	c #8C957C",
"W 	c #8B9D88",
"X 	c #87AA95",
"Y 	c #ACC9C6",
"Z 	c #A3C7BD",
"` 	c #BAD3CC",
" .	c #C1CFD1",
"..	c #A5BBB3",
"+.	c #A1BCA8",
"@.	c #5F996F",
"#.	c #4F9363",
"$.	c #A8BBAA",
"%.	c #739E7E",
"&.	c #519162",
"*.	c #4F9262",
"=.	c #C62605",
"-.	c #569061",
";.	c #559061",
">.	c #4E9262",
",.	c #509162",
"'.	c #C92609",
").	c #CE1702",
"!.	c #683932",
"~.	c #704A3E",
"{.	c #D12B1A",
"].	c #DD3D26",
"^.	c #DA3D27",
"/.	c #5E5E31",
"(.	c #5B573B",
"_.	c #DC3D27",
":.	c #F30E06",
"<.	c #EC311E",
"[.	c #356845",
"}.	c #366945",
"|.	c #59823D",
"1.	c #23482E",
"2.	c #6C6C6C",
"3.	c #427E54",
"                                                                ",
"            . + @ @ @ @ @ @ @               #                   ",
"            $ % % % % % % % % &           #   #                 ",
"              % % % % % % % % *             #                   ",
"          % % % % % % % % =                                     ",
"          % % % % % % % % -   ; > ,                             ",
"      ' ) ! ! % % % % ~     { ] ] ] ] ] ] ] ^ / ] ] ( _ :       ",
"      ! ! ! ! % % % % < [ , } ] ] ] ] ] ] ] ] ] ] ] ] ] ]       ",
"  | 1 ! ! 2 2 ! ! % % ] ] ] ] 3 4 5 6 7 7 8 8 8 8 7 7 8 8 9 0   ",
"  a b ! ! 2 2 ! ! % % c ] ] ] d e f g 7 7 8 8 8 8 7 7 8 8 h i   ",
"      ! ! ! ! % % ] j k l m n o p q 8 8 8 7 7 8 8 8 8 7 r       ",
"      s t ! ! % % ] u v       w x 8 8 8 8 7 7 8 8     y         ",
"          ! ! % % z A B       C D 7 7 8 8 8 8 7 E               ",
"          ! ! % % z F G H I J K L 7 7 8 8                       ",
"      M % % % % % z z z N O P Q R 8 8 7 S                       ",
"T     % % % % % % z z z U V W X Y Z `  ...                      ",
"  T   % % % % % % % % z z z z z z +.  @.#.                    T ",
"T     % % % % % % % % z z z z z z $.%.                          ",
"      % % % % % % % % % % z z z z z z                           ",
"      % % % % % % % % % % z z z z z z                           ",
"        &.% % % % % % % % % % % % % %                           ",
"          % % % % % % % % % % % % % % *.                        ",
"          % % % % % % % % % % % % % % % %                       ",
"          % % % % % % % % % % % % % % % %                       ",
"              % % % % % % % % % % % % % % % =.    T             ",
"              % % % % % % % % % % % % % % % % T   T             ",
"                      % % % % -.;.i >.>.,.% % % '.T             ",
"                      % % % %             % % % ).              ",
"                          !.~.                {.% ].^.          ",
"                          /.(.                _.% :.<.          ",
"                  [.[.}.|.  T                                   ",
"                  1.2.2.3.T                                     "};
