/* XPM */
static char * bird2_xpm[] = {
"32 32 125 2",
"  	c #4D9262",
". 	c #84AB8E",
"+ 	c #FFFFFF",
"@ 	c #3E734E",
"# 	c #ABC3B1",
"$ 	c #C72700",
"% 	c #A2BDA8",
"& 	c #8EB197",
"* 	c #8FB197",
"= 	c #C4300E",
"- 	c #BDCEC1",
"; 	c #C23716",
"> 	c #475335",
", 	c #440D00",
"' 	c #BF3E1E",
") 	c #7AB055",
"! 	c #AF5835",
"~ 	c #D24624",
"{ 	c #D93A17",
"] 	c #000000",
"^ 	c #977048",
"/ 	c #579061",
"( 	c #917D52",
"_ 	c #837D52",
": 	c #D23E1A",
"< 	c #C4532F",
"[ 	c #C35430",
"} 	c #C6512D",
"| 	c #C94D29",
"1 	c #C15733",
"2 	c #B95F39",
"3 	c #836743",
"4 	c #4C8E5F",
"5 	c #4A7B52",
"6 	c #B6623C",
"7 	c #BC5C37",
"8 	c #BD5B36",
"9 	c #AB6B43",
"0 	c #B62300",
"a 	c #A84B2B",
"b 	c #569568",
"c 	c #B5633C",
"d 	c #CB4A27",
"e 	c #CA4B27",
"f 	c #C5522E",
"g 	c #AC4324",
"h 	c #79A283",
"i 	c #679B75",
"j 	c #B2663F",
"k 	c #C94C29",
"l 	c #94724A",
"m 	c #B74C2A",
"n 	c #B42C0C",
"o 	c #AE3E1F",
"p 	c #6F9C7B",
"q 	c #589569",
"r 	c #B7BDB8",
"s 	c #A3B7A7",
"t 	c #C6502C",
"u 	c #B42D0E",
"v 	c #7DA286",
"w 	c #679A75",
"x 	c #559468",
"y 	c #609770",
"z 	c #539466",
"A 	c #D23F1B",
"B 	c #CF431F",
"C 	c #B62402",
"D 	c #5E976E",
"E 	c #509364",
"F 	c #74A080",
"G 	c #AFBEB2",
"H 	c #C8CDC9",
"I 	c #C2C3C2",
"J 	c #C4C4C4",
"K 	c #CE4522",
"L 	c #AEB8B0",
"M 	c #92AB98",
"N 	c #D5D5D5",
"O 	c #609A70",
"P 	c #CB4926",
"Q 	c #C23514",
"R 	c #C52C08",
"S 	c #B4C1B7",
"T 	c #ADBDB1",
"U 	c #AAB6AD",
"V 	c #AEB8B1",
"W 	c #B1BFB4",
"X 	c #8FAD97",
"Y 	c #8AAA92",
"Z 	c #94AF9A",
"` 	c #D13F1B",
" .	c #549567",
"..	c #C72802",
"+.	c #DFE7E1",
"@.	c #7CA787",
"#.	c #77A483",
"$.	c #5D986E",
"%.	c #C62B06",
"&.	c #DCE5DE",
"*.	c #5F996F",
"=.	c #C52F0C",
"-.	c #5C986D",
";.	c #C62A05",
">.	c #ACC3B1",
",.	c #D9E2DB",
"'.	c #FDFEFD",
").	c #89AE92",
"!.	c #A3BDA9",
"~.	c #FCFDFB",
"{.	c #57966A",
"].	c #6C6C6C",
"^.	c #68746A",
"/.	c #FAFCFB",
"(.	c #DBE4DD",
"_.	c #6E7869",
":.	c #647969",
"<.	c #4F9363",
"[.	c #5E8167",
"}.	c #617D68",
"|.	c #657869",
"1.	c #6F7E68",
"2.	c #E5EBE6",
"3.	c #F8F9F8",
"4.	c #5C8367",
"                                                                ",
"            . + + + + + + + +               @                   ",
"            # $ $ $ $ $ $ $ $ %           @   @                 ",
"            & $ $ $ $ $ $ $ $ *             @                   ",
"          = $ $ $ $ $ $ $ -                                     ",
"          $ $ $ $ $ $ $ ;                                       ",
"      > , , , $ $ $ '             )                             ",
"      , , , , $ $ $ !             ) )                           ",
"  ~ { , , ] ] , , $ ^             ) )     )                     ",
"  / ( , , ] ] , , $ _               ) @ ) )                     ",
"      , , , , $ $ : : < [ [ } | 1 2 3 ) ) @                     ",
"      4 5 , , $ $ : : 6 7 8 } : : : 9 @ @                       ",
"          , , $ $ 0 a b               c d e f                   ",
"          , , $ $ 0 g h i             j : : k                   ",
"      l m $ $ $ $ 0 0 n o p q           r s   t }               ",
")     $ $ $ $ $ $ 0 0 0 u v w x         y z b A B               ",
"  )   $ $ $ $ $ $ $ $ 0 0 C 0 0 C D E x F G H I J K |         ) ",
")     $ $ $ $ $ $ $ $ 0 0 0 0 0 0 L M N N N N J J : : O         ",
"      $ $ $ $ $ $ $ $ $ $ 0 0 0 0 0 0 N N J J N N N N : P       ",
"      Q R $ $ $ $ $ $ $ $ 0 0 0 0 0 0 S T U V W X Y Z : `       ",
"         ...$ $ $ $ $ $ $ $ $ $ $ 0 0 +.@.#.$.                  ",
"          %.$ $ $ $ $ $ $ $ $ $ $ 0 0 &.*.                      ",
"          =.$ $ $ $ $ $ $ $ $ $ $ $ $ 0 C -.                    ",
"          ' ;.$ $ $ $ $ $ $ $ $ $ $ $ 0 0 >.b                   ",
"            b $ $ $ $ $ $ $ $ $ $ $ $ $ $ $ $ ,.  )             ",
"              ..$ $ $ $ $ $ $ $ $ $ $ $ $ $ $ '. .)             ",
"                    ).$ $ $ $ O         !.$ $ $ $ ~.            ",
"                      $ $ $ $             $ $ $ $ +             ",
"                        {.].^.            O /.$ $ $ $ (.        ",
"                          _.:.              <.$ $ $ $           ",
"                  [.}.|.1.  )                 2.3.-             ",
"                  [.].].4.)                                     "};
