/* XPM */
static char * bird3_xpm[] = {
"32 32 103 2",
"  	c #4D9262",
". 	c #89AE93",
"+ 	c #FFFFFF",
"@ 	c #3E734E",
"# 	c #E9EFEB",
"$ 	c #C72700",
"% 	c #679D76",
"& 	c #C4D4C8",
"* 	c #88AD91",
"= 	c #57966A",
"- 	c #453721",
"; 	c #441505",
"> 	c #440D00",
", 	c #8DB096",
"' 	c #7AB055",
") 	c #B9633D",
"! 	c #DA3712",
"~ 	c #000000",
"{ 	c #C52D09",
"] 	c #658D5E",
"^ 	c #C85330",
"/ 	c #BD4121",
"( 	c #649B74",
"_ 	c #D23E1A",
": 	c #CD4623",
"< 	c #A96C44",
"[ 	c #4B8358",
"} 	c #BD5B36",
"| 	c #441706",
"1 	c #B62300",
"2 	c #C7502C",
"3 	c #C25531",
"4 	c #BA5E39",
"5 	c #569061",
"6 	c #441C0B",
"7 	c #B4633D",
"8 	c #A47148",
"9 	c #A7623D",
"0 	c #C03B1A",
"a 	c #AB4526",
"b 	c #9C754B",
"c 	c #AC4224",
"d 	c #529365",
"e 	c #75885A",
"f 	c #907C51",
"g 	c #AC6B43",
"h 	c #AB4425",
"i 	c #99613D",
"j 	c #98774D",
"k 	c #858155",
"l 	c #C72802",
"m 	c #A64E2E",
"n 	c #B7613B",
"o 	c #926943",
"p 	c #9C764C",
"q 	c #8A7F53",
"r 	c #BB5E38",
"s 	c #C4300E",
"t 	c #5A8F60",
"u 	c #C5522E",
"v 	c #C35430",
"w 	c #97B69F",
"x 	c #EEF2EE",
"y 	c #A74C2C",
"z 	c #7F794F",
"A 	c #8F7C51",
"B 	c #788659",
"C 	c #C6512D",
"D 	c #D4DFD6",
"E 	c #AC4223",
"F 	c #C94D29",
"G 	c #D13F1B",
"H 	c #85AC8F",
"I 	c #9E5B38",
"J 	c #7E7A50",
"K 	c #A47047",
"L 	c #D0421E",
"M 	c #B52806",
"N 	c #CE4522",
"O 	c #CE4521",
"P 	c #F6F8F6",
"Q 	c #B62402",
"R 	c #6B9E79",
"S 	c #4F9363",
"T 	c #E8EEE9",
"U 	c #EAEFEB",
"V 	c #FAFCFB",
"W 	c #D4DFD7",
"X 	c #B1C7B6",
"Y 	c #F9FBFA",
"Z 	c #7FA88A",
"` 	c #6C6C6C",
" .	c #7BA686",
"..	c #DBE4DD",
"+.	c #F2F5F2",
"@.	c #558A64",
"#.	c #5A8666",
"$.	c #739062",
"%.	c #637A69",
"&.	c #EEF2EF",
"*.	c #6D9F7B",
"=.	c #5D8267",
"-.	c #728C64",
"                                                                ",
"              . + + + + + + + +             @                   ",
"              # $ $ $ $ $ $ $ $ %         @   @                 ",
"            & + $ $ $ $ $ $ $ $             @                   ",
"            $ $ $ $ $ $ $ $ *                                   ",
"            $ $ $ $ $ $ $ $ =                                   ",
"        - ; > > $ $ $ $ ,         '                             ",
"        > > > > $ $ $ $           ' '                           ",
"    ) ! > > ~ ~ > > $ {           ' '     '                     ",
"    ] ^ > > ~ ~ > > $ / (           ' @ ' '                     ",
"        ; > > > $ $ _ _ : <         @ ' ' @                     ",
"          [ > > $ $ _ _ _ }           @ @                       ",
"            | > $ $ 1 1 _ _ 2 3 4 5                             ",
"            6 > $ $ 1 1 _ _ 7 < _ 8                             ",
"        9 0 $ $ $ $ 1 1 1 a     < _ b                           ",
"'       $ $ $ $ $ $ 1 1 1 c d   e f _ g                         ",
"  '     $ $ $ $ $ $ $ $ 1 1 h i     j _ k                     ' ",
"'       l $ $ $ $ $ $ $ 1 1 1 m       n _ n                     ",
"        $ $ $ $ $ $ $ $ $ $ 1 1 m o     p _ q r                 ",
"        s $ $ $ $ $ $ $ $ $ 1 1 1 h     t u _ v                 ",
"        w x $ $ $ $ $ $ $ $ $ $ 1 1 y z     A _ B C             ",
"          D $ $ $ $ $ $ $ $ $ $ 1 1 1 E       F _ G             ",
"          H $ $ $ $ $ $ $ $ $ $ $ $ 1 1 I J     K L             ",
"            $ $ $ $ $ $ $ $ $ $ $ $ 1 1 1 M     N O             ",
"              P $ $ $ $ $ $ $ $ $ $ $ $ $ $ Q Q   '             ",
"              R $ $ $ $ $ $ $ $ $ $ $ $ $ $ 1 1   '             ",
"                S T U V $ $ $ $             $ $ $ $ W           ",
"                      X $ $ $ $             $ $ $ $ Y           ",
"                          Z ` `                .$ $ $ $ ..      ",
"                          ' ` `                 $ $ $ $ +.      ",
"                    @.#.$.%.'                       * &.*.      ",
"                    =.` ` -.                                    "};
