/* XPM */
static char * collect_xpm[] = {
"32 32 9 1",
" 	c None",
".	c #004391",
"+	c #D5D5D5",
"@	c #000C1A",
"#	c #001B3C",
"$	c #000000",
"%	c #1F5FA9",
"&	c #F4F4F4",
"*	c #6C6C6C",
"                                ",
"                                ",
"                                ",
"                                ",
"      ..........                ",
"      ..........                ",
"    ..++++@@                    ",
"    ..++++@@                    ",
"####++$$++@@                    ",
"####++$$++@@                    ",
"    ++++@@....                  ",
"    ++++@@....                  ",
"      @@......@@                ",
"      @@......@@                ",
"    ..%%....@@&&%%              ",
"    ..%%....@@&&%%              ",
"    ++%%@@&&&&....%%            ",
"    ++%%@@&&&&....%%            ",
"    ++++%%......&&@@&&          ",
"    ++++%%......&&@@&&          ",
"      ++..%%%%&&%%&&&&          ",
"      ++..%%%%&&%%&&&&          ",
"      ++++++......@@..          ",
"      ++++++......@@..          ",
"        ++++++++++++@@..        ",
"        ++++++++++++@@..        ",
"            ++++    ++@@..      ",
"            ++++    ++@@..      ",
"              **      ++....    ",
"              **      ++....    ",
"          ****          &&&&&&  ",
"          ****          &&&&&&  "};
