/* XPM */
static char * collect_xpm[] = {
"32 32 11 1",
" 	c #4D9262",
".	c #3E734E",
"+	c #004391",
"@	c #D5D5D5",
"#	c #000C1A",
"$	c #7AB055",
"%	c #001B3C",
"&	c #000000",
"*	c #1F5FA9",
"=	c #F4F4F4",
"-	c #6C6C6C",
"                                ",
"                      .         ",
"                     . .        ",
"       ++++++++++     .         ",
"       ++++++++++               ",
"     ++@@@@##                   ",
"     ++@@@@##    $              ",
" %%%%@@&&@@##    $$             ",
" %%%%@@&&@@##    $$  $          ",
"     @@@@##++++   $.$$          ",
"     @@@@##++++   .$$.          ",
"      $##++++++##  ..           ",
"       ##++++++##               ",
"     ++**++++##==**             ",
"     ++**++++##==**             ",
"$    @@**##====++++**           ",
" $   @@**##====++++**          $",
"$    @@@@**++++++==##==         ",
"     @@@@**++++++==##==         ",
"       @@++****==**====         ",
"       @@++****==**====         ",
"       @@@@@@++++++##++         ",
"       @@@@@@++++++##++         ",
"         @@@@@@@@@@@@##++       ",
"         @@@@@@@@@@@@##++$      ",
"             @@@@    @@##++     ",
"             @@@@    @@##++     ",
"               --      @@++++   ",
"               --      @@++++   ",
"           ----          ====== ",
"           ----          ====== ",
"             $                  "};
