/* XPM */
static char * ennemy_xpm[] = {
"32 32 6 1",
" 	c #4D9262",
".	c #3E734E",
"+	c #8B9BB5",
"@	c #ECF0F1",
"#	c #7AB055",
"$	c #252B43",
"                                ",
"                      .         ",
"                     . .        ",
"                      .         ",
"                                ",
"            ++++++++@@          ",
"            + ++++++@@          ",
"            ++++++++@@          ",
"      #     +++++++@@@          ",
"      #     ++++++@@@@          ",
"      # #   +++++@@+@@          ",
"      # #   ++++@@++@@          ",
"        #   +++@@+++@@          ",
"            ++@@++++@@          ",
"            +@@+++++@@          ",
"#           @@++++++@@          ",
" #          @+++++++@@         #",
"#           ++++++++@@          ",
"            ++++++++@@          ",
"            ++++++++@@          ",
"            ++++++++@@          ",
"          . +++                 ",
"         . .$$$                 ",
"          . $$$                 ",
"            $$$          #      ",
"            $$$        # #      ",
"            $$$        # #      ",
"            $$$        #        ",
"            $$$                 ",
"             #                  ",
"            # #                 ",
"             #                  "};
