/* XPM */
static char * panel_end_xpm[] = {
"32 32 7 1",
" 	c None",
".	c #6E2300",
"+	c #410A00",
"@	c #C06000",
"#	c #220018",
"$	c #2A0600",
"%	c #180010",
"                                ",
"                                ",
"                                ",
"                                ",
"               .+               ",
"      @@@@@@@@@@@@@@@@@@@@      ",
"     @....................@     ",
"     .....................+     ",
"     .++.+.+....++.+..+...+     ",
"     .+..+.++...++.+.++.+.+     ",
"     .....................+     ",
"     .....................+     ",
"     ..+.++.....+.++...++.+     ",
"     .++..+.++..+.++.+.+..+     ",
"     .....................+     ",
"     .....................+     ",
"     ++..................++     ",
"      ++++++++++++++++++++      ",
"               ##               ",
"               +#               ",
"               ++               ",
"               $$               ",
"               $$               ",
"               $$               ",
"               %%               ",
"                                ",
"                                ",
"                                ",
"                                ",
"                                ",
"                                ",
"                                "};
