/* XPM */
static char * panel_end_xpm[] = {
"32 32 9 1",
" 	c #4D9262",
".	c #3E734E",
"+	c #6E2300",
"@	c #410A00",
"#	c #C06000",
"$	c #7AB055",
"%	c #220018",
"&	c #2A0600",
"*	c #180010",
"                                ",
"                      .         ",
"                     . .        ",
"                      .         ",
"               +@               ",
"      ####################      ",
"     #++++++++++++++++++++#     ",
"     +++++++++++++++++++++@     ",
"     +@@+@+@++++@@+@++@+++@     ",
"     +@++@+@@+++@@+@+@@+@+@     ",
"     +++++++++++++++++++++@     ",
"     +++++++++++++++++++++@     ",
"     ++@+@@+++++@+@@+++@@+@     ",
"     +@@++@+@@++@+@@+@+@++@     ",
"     +++++++++++++++++++++@     ",
"$    +++++++++++++++++++++@     ",
" $   @@++++++++++++++++++@@    $",
"$     @@@@@@@@@@@@@@@@@@@@      ",
"               %%               ",
"               @%               ",
"               @@               ",
"          .    &&               ",
"         . .   &&               ",
"          .    &&               ",
"               **        $      ",
"                       $ $      ",
"                       $ $      ",
"                       $        ",
"                                ",
"             $                  ",
"            $ $                 ",
"             $                  "};
