/* XPM */
static char * player_xpm[] = {
"32 32 10 1",
" 	c #4D9262",
".	c #3E734E",
"+	c #33144D",
"@	c #B18B9A",
"#	c #573222",
"$	c #8D5B57",
"%	c #7AB055",
"&	c #A52D27",
"*	c #3E3D8A",
"=	c #3A3B3D",
"                                ",
"                      .         ",
"               ++@+  . .        ",
"               ++@+   .         ",
"              ++++++            ",
"               ####             ",
"   @           +$+#             ",
"               $$$#             ",
" @    %       +####+ %          ",
"      %      ++###+++%          ",
"   &  % %   *++@+@+++.          ",
"   &$ % %  *+++@+@++*           ",
"   & *******+++$+@++*+          ",
"   & ********++$+$++*+          ",
"      ********+$+$$+**          ",
"%          ***+@@+$$**+         ",
" %         ***+@@++$**+        %",
"%          ***+**&*&+*++        ",
"           ***+**&*&+*+++       ",
"           ***+**&*&++*+$       ",
"           ***+++***++*         ",
"          ***+*+++++++*         ",
"         .+++****+++ +*         ",
"          . **** +++  *         ",
"            **** +++     %      ",
"            ***  ++    % %      ",
"            ***  ++    % %      ",
"            ***  ++    %        ",
"             ++ +@              ",
"             @@ +**             ",
"            +++=======          ",
"             %                  "};
