/* XPM */
static char * player_xpm[] = {
"32 32 8 1",
" 	c None",
".	c #33144D",
"+	c #B18B9A",
"@	c #573222",
"#	c #8D5B57",
"$	c #A52D27",
"%	c #3E3D8A",
"&	c #3A3B3D",
"                                ",
"                                ",
"               ..+.             ",
"               ..+.             ",
"              ......            ",
"               @@@@             ",
"   +           .#.@             ",
"               ###@             ",
" +            .@@@@.            ",
"             ..@@@...           ",
"   $        %..+.+...           ",
"   $#      %...+.+..%           ",
"   $ %%%%%%%...#.+..%.          ",
"   $ %%%%%%%%..#.#..%.          ",
"      %%%%%%%%.#.##.%%          ",
"           %%%.++.##%%.         ",
"           %%%.++..#%%.         ",
"           %%%.%%$%$.%..        ",
"           %%%.%%$%$.%...       ",
"           %%%.%%$%$..%.#       ",
"           %%%...%%%..%         ",
"          %%%.%.......%         ",
"          ...%%%%... .%         ",
"            %%%% ...  %         ",
"            %%%% ...            ",
"            %%%  ..             ",
"            %%%  ..             ",
"            %%%  ..             ",
"             .. .+              ",
"             ++ .%%             ",
"            ...&&&&&&&          ",
"                                "};
