/* XPM */
static char * player_left_xpm[] = {
"32 32 7 1",
" 	c #4D9262",
".	c #3E734E",
"+	c #000000",
"@	c #4F2C14",
"#	c #7AB055",
"$	c #885B39",
"%	c #D78244",
"                                ",
"                      .         ",
"                     . .        ",
"                      .         ",
"                                ",
"             ++++               ",
"             +@@+#              ",
"      ++++++++@$+##             ",
"     ++$$%%%%%%$++#  #          ",
"     +$$$%%++%%%%++.##          ",
"     +$$%%%%%%%%%%++#.          ",
"     +$%%%%%%%%%%%%+++++++      ",
"     +$%%%%%%%%%%%%%%%%%%++     ",
"     ++++++++%%%%%%%%%%%%%+     ",
"            ++%%%%%%%$$%%%+     ",
"#            +%%%%%%%%%%%%+     ",
" #           +%%%%%$$%%$$%+    #",
"#            ++%%%%%%%%%%%++    ",
"              +%%%%%%%%%%%%+    ",
"              +@%%++++%%%%@++   ",
"             ++@@+++ +++%@@@+   ",
"          .  +@@@+++  +++@@@+   ",
"         . . +@@++++ ++++@@++   ",
"          .  +@++ ++ ++ +@@+    ",
"             +++        ++++    ",
"                       # #      ",
"                       # #      ",
"                       #        ",
"                                ",
"             #                  ",
"            # #                 ",
"             #                  "};
