/* XPM */
static char * player_back_xpm[] = {
"32 32 24 1",
" 	c #4D9262",
".	c #3E734E",
"+	c #010402",
"@	c #050B02",
"#	c #040E06",
"$	c #885B39",
"%	c #081004",
"&	c #020703",
"*	c #7AB055",
"=	c #000000",
"-	c #07160B",
";	c #D78244",
">	c #152E1D",
",	c #030B05",
"'	c #314B20",
")	c #0D2013",
"!	c #091A0E",
"~	c #08180C",
"{	c #0C2012",
"]	c #4F2C14",
"^	c #5A976C",
"/	c #519365",
"(	c #639B73",
"_	c #4F9363",
"                                ",
"                      .         ",
"                     . .        ",
"                      .         ",
"                                ",
"                                ",
"            +++  @+#            ",
"            +$+  %$&            ",
"      *     +$=#-=$- *          ",
"      *     &;;;;;;>**          ",
"      * *   ,;;;;;;'*.          ",
"      * *   -;;;;;;).           ",
"        *   !;;;;;;,            ",
"            ~=======            ",
"           {=;;;;;;==           ",
"*          &;;;;;;;;=           ",
" *         +;;;;;;;;=          *",
"*          +$;;;;;;$=           ",
"           +;;;;;;;;=           ",
"           +];;;;;;]=           ",
"           =]]====]]=           ",
"          .=]]==+=]]=           ",
"         . ==]== =]]=^          ",
"          . ===/ =]]=(          ",
"            ===_/=]==^   *      ",
"                 ===/  * *      ",
"                       * *      ",
"                       *        ",
"                                ",
"             *                  ",
"            * *                 ",
"             *                  "};
