/* XPM */
static char * player_front_xpm[] = {
"32 32 8 1",
" 	c #4D9262",
".	c #3E734E",
"+	c #7AB055",
"@	c #000000",
"#	c #4F2C14",
"$	c #D78244",
"%	c #885B39",
"&	c #FFFFFF",
"                                ",
"                      .         ",
"                     . .        ",
"                      .         ",
"                                ",
"                                ",
"                 +              ",
"            @@@  @@@            ",
"      +     @#@  @#@ +          ",
"      +     @#@@@@#@++          ",
"      + +   @$$%%$$@+.          ",
"      + +   @@%%%%@@.           ",
"        +   @$%%%%$@            ",
"            @$%%%%$@            ",
"            @@@@@@@@            ",
"+           @$$$$$$@            ",
" +         @@$$$$$$@           +",
"+          @$$$$$$$$@           ",
"           @$$$$$$$$@           ",
"           @$$$$$$$$@           ",
"           @$$$$$$$$@           ",
"          .@#$$$$$$#@           ",
"         . @##$$$$##@           ",
"          .@##@@@###@           ",
"           @##@@@###@    +      ",
"           @##@@@###@  + +      ",
"           @@#@&@@##@  + +      ",
"            @@@  @@@@  +        ",
"                                ",
"             +                  ",
"            + +                 ",
"             +                  "};
